<svg xmlns="http://www.w3.org/2000/svg" fill="#000000">
    <g stroke="#000000" stroke-width=".9" fill="none" fill-rule="evenodd" stroke-linecap="round" stroke-linejoin="round">
        <path d="M19.67 10.672v2.22c0 1.716-1.43 3.108-3.195 3.108H2.325C1.318 16 .5 15.205.5 14.224V2.679C.5 1.7 1.317.903 2.326.903h14.15c1.764 0 3.195 1.392 3.195 3.108v2.22"/>
        <path d="M16.932 8.23c.126 0 .228.099.228.222a.225.225 0 0 1-.228.222.225.225 0 0 1-.228-.222c0-.06.023-.116.066-.158a.23.23 0 0 1 .162-.064M3.242 3.567h1.826M6.894 3.567H8.72M10.545 3.567h1.826M14.197 3.567h1.826M3.242 13.336h1.826M6.894 13.336H8.72M10.545 13.336h1.826M14.197 13.336h1.826"/>
        <path d="M15.997 6.232H19.7a1.8 1.8 0 0 1 1.8 1.8v.84a1.8 1.8 0 0 1-1.8 1.8h-3.703a1.8 1.8 0 0 1-1.8-1.8v-.84a1.8 1.8 0 0 1 1.8-1.8z"/>
    </g>
</svg>
